<svg width="159" height="50" viewBox="0 0 159 50" fill="none" xmlns="http://www.w3.org/2000/svg">
<path d="M46.64 39V11H58.8C60.56 11 62.0933 11.3067 63.4 11.92C64.7067 12.5333 65.72 13.4 66.44 14.52C67.16 15.64 67.52 16.96 67.52 18.48V18.96C67.52 20.64 67.12 22 66.32 23.04C65.52 24.08 64.5333 24.84 63.36 25.32V26.04C64.4267 26.0933 65.2533 26.4667 65.84 27.16C66.4267 27.8267 66.72 28.72 66.72 29.84V39H61.44V30.6C61.44 29.96 61.2667 29.44 60.92 29.04C60.6 28.64 60.0533 28.44 59.28 28.44H51.92V39H46.64ZM51.92 23.64H58.24C59.4933 23.64 60.4667 23.3067 61.16 22.64C61.88 21.9467 62.24 21.04 62.24 19.92V19.52C62.24 18.4 61.8933 17.5067 61.2 16.84C60.5067 16.1467 59.52 15.8 58.24 15.8H51.92V23.64ZM81.5134 39.56C79.5401 39.56 77.7668 39.16 76.1934 38.36C74.6201 37.56 73.3801 36.4 72.4734 34.88C71.5668 33.36 71.1134 31.5333 71.1134 29.4V28.76C71.1134 26.6267 71.5668 24.8 72.4734 23.28C73.3801 21.76 74.6201 20.6 76.1934 19.8C77.7668 19 79.5401 18.6 81.5134 18.6C83.4868 18.6 85.2601 19 86.8334 19.8C88.4068 20.6 89.6468 21.76 90.5534 23.28C91.4601 24.8 91.9134 26.6267 91.9134 28.76V29.4C91.9134 31.5333 91.4601 33.36 90.5534 34.88C89.6468 36.4 88.4068 37.56 86.8334 38.36C85.2601 39.16 83.4868 39.56 81.5134 39.56ZM81.5134 35.08C83.0601 35.08 84.3401 34.5867 85.3534 33.6C86.3668 32.5867 86.8734 31.1467 86.8734 29.28V28.88C86.8734 27.0133 86.3668 25.5867 85.3534 24.6C84.3668 23.5867 83.0868 23.08 81.5134 23.08C79.9668 23.08 78.6868 23.5867 77.6734 24.6C76.6601 25.5867 76.1534 27.0133 76.1534 28.88V29.28C76.1534 31.1467 76.6601 32.5867 77.6734 33.6C78.6868 34.5867 79.9668 35.08 81.5134 35.08ZM108.486 39.56C106.699 39.56 105.326 39.2533 104.366 38.64C103.406 38.0267 102.699 37.3467 102.246 36.6H101.526V39H96.5656V11H101.606V21.44H102.326C102.619 20.96 103.006 20.5067 103.486 20.08C103.992 19.6533 104.646 19.3067 105.446 19.04C106.272 18.7467 107.286 18.6 108.486 18.6C110.086 18.6 111.566 19 112.926 19.8C114.286 20.5733 115.379 21.72 116.206 23.24C117.032 24.76 117.446 26.6 117.446 28.76V29.4C117.446 31.56 117.032 33.4 116.206 34.92C115.379 36.44 114.286 37.6 112.926 38.4C111.566 39.1733 110.086 39.56 108.486 39.56ZM106.966 35.16C108.512 35.16 109.806 34.6667 110.846 33.68C111.886 32.6667 112.406 31.2 112.406 29.28V28.88C112.406 26.96 111.886 25.5067 110.846 24.52C109.832 23.5067 108.539 23 106.966 23C105.419 23 104.126 23.5067 103.086 24.52C102.046 25.5067 101.526 26.96 101.526 28.88V29.28C101.526 31.2 102.046 32.6667 103.086 33.68C104.126 34.6667 105.419 35.16 106.966 35.16ZM131.513 39.56C129.54 39.56 127.767 39.16 126.193 38.36C124.62 37.56 123.38 36.4 122.473 34.88C121.567 33.36 121.113 31.5333 121.113 29.4V28.76C121.113 26.6267 121.567 24.8 122.473 23.28C123.38 21.76 124.62 20.6 126.193 19.8C127.767 19 129.54 18.6 131.513 18.6C133.487 18.6 135.26 19 136.833 19.8C138.407 20.6 139.647 21.76 140.553 23.28C141.46 24.8 141.913 26.6267 141.913 28.76V29.4C141.913 31.5333 141.46 33.36 140.553 34.88C139.647 36.4 138.407 37.56 136.833 38.36C135.26 39.16 133.487 39.56 131.513 39.56ZM131.513 35.08C133.06 35.08 134.34 34.5867 135.353 33.6C136.367 32.5867 136.873 31.1467 136.873 29.28V28.88C136.873 27.0133 136.367 25.5867 135.353 24.6C134.367 23.5867 133.087 23.08 131.513 23.08C129.967 23.08 128.687 23.5867 127.673 24.6C126.66 25.5867 126.153 27.0133 126.153 28.88V29.28C126.153 31.1467 126.66 32.5867 127.673 33.6C128.687 34.5867 129.967 35.08 131.513 35.08ZM146.566 39V19.16H151.526V21.4H152.246C152.539 20.6 153.019 20.0133 153.686 19.64C154.379 19.2667 155.179 19.08 156.086 19.08H158.486V23.56H156.006C154.726 23.56 153.672 23.9067 152.846 24.6C152.019 25.2667 151.606 26.3067 151.606 27.72V39H146.566Z" fill="white"/>
<path d="M35.3709 37.068C34.487 35.0789 33.1447 33.4469 31.5846 31.9738C30.1538 30.6209 28.5712 29.6388 26.8217 29.0766C24.5106 31.3586 21.3867 32.6959 18.0077 32.6959C14.6145 32.6959 11.4793 31.3488 9.16571 29.0503C8.92973 29.1301 8.69589 29.2175 8.46631 29.3229C4.79907 31.0072 2.11875 33.7036 0.47544 37.4482C0.0248097 38.4747 -0.0633286 39.5532 0.0376012 40.6548C0.0980169 41.3177 0.304852 41.9084 1.03268 42.3153C2.96457 40.949 3.98097 38.6949 5.7476 37.0351C5.86843 37.533 5.9619 37.9226 6.05572 38.3119C6.60763 40.6104 7.5025 42.7522 8.85155 44.6936C10.4842 47.0441 12.5472 48.8794 15.3079 49.6134C19.5238 50.7349 23.0766 49.3661 25.9776 46.1779C27.6476 44.3423 28.8125 42.1871 29.5116 39.7832C29.7692 38.8982 30.012 38.0089 30.291 37.0175C30.6105 37.3821 30.8805 37.6721 31.13 37.9804C32.0142 39.073 32.8768 40.1847 33.7784 41.2621C34.1316 41.6838 34.4795 42.1597 35.158 42.2431C35.7497 41.7542 35.9331 41.1588 35.9814 40.4891C36.0671 39.2936 35.8556 38.158 35.3709 37.068Z" fill="url(#paint0_linear_1_50527)"/>
<path d="M4.81068 14.7121C4.37178 15.0624 4.05476 15.692 3.86143 16.59C3.37171 17.3226 3.0835 18.2054 3.0835 19.1582C3.0835 20.1143 3.37171 21.0022 3.86428 21.7373C4.06543 22.6201 4.43645 23.4642 5.11773 23.7914C5.31497 23.886 5.52535 23.9325 5.74569 23.9325C6.05061 23.9325 6.37828 23.8365 6.72514 23.6607C6.74824 23.6654 6.77134 23.669 6.79444 23.6733C8.56569 28.2125 12.9174 31.4357 18.0076 31.4357C23.0818 31.4357 27.4211 28.232 29.2037 23.7148C29.251 23.7062 29.2979 23.6968 29.3444 23.6867C29.6703 23.8448 29.9799 23.9329 30.2674 23.9329C30.4898 23.9329 30.7002 23.886 30.8964 23.7917C31.5731 23.4671 31.9437 22.6334 32.1459 21.759C32.6467 21.004 32.9328 20.0912 32.915 19.112C32.8986 18.2105 32.625 17.3768 32.1701 16.6767C31.9793 15.7321 31.6573 15.0728 31.2042 14.7121C31.0912 14.6226 30.981 14.5612 30.8772 14.5168L30.2336 5.96328C31.1427 5.90009 31.8535 5.12453 31.8364 4.18866C31.819 3.22283 31.0336 2.45485 30.0833 2.47254C29.133 2.49059 28.3767 3.28746 28.3941 4.25329C28.4112 5.18952 29.1493 5.93764 30.0602 5.96652L29.725 14.6258C29.6557 14.6659 29.5868 14.71 29.5182 14.7583C29.4208 14.7331 29.3224 14.7111 29.2225 14.6923C27.6524 10.656 24.0438 7.66856 19.6843 7.04862V6.46732C20.7011 5.86398 21.3944 4.75589 21.3944 3.47557C21.3944 1.5587 19.8606 0 17.9731 0C16.0878 0 14.5525 1.5587 14.5525 3.47557C14.5525 4.72953 15.2185 5.82138 16.2012 6.43229V7.06884C11.9138 7.72597 8.37129 10.6755 6.80902 14.65C6.69316 14.671 6.57836 14.6941 6.46571 14.7237C6.37188 14.6587 6.27771 14.6027 6.18495 14.5569L5.69594 5.96869C6.60538 5.92248 7.3293 5.161 7.3293 4.22549C7.3293 3.26002 6.55918 2.47796 5.60923 2.47796C4.65999 2.47796 3.88915 3.26002 3.88915 4.22549C3.88915 5.161 4.61379 5.92284 5.52251 5.96869L5.03314 14.5681C4.96135 14.6063 4.88709 14.6515 4.81068 14.7121ZM16.2022 7.84873C16.4531 7.80685 16.7037 7.76569 16.9613 7.74222V6.96955V5.97194C16.6802 5.85351 16.4247 5.68057 16.2022 5.47584C15.661 4.98011 15.3152 4.27099 15.3152 3.47557C15.3152 1.98511 16.5096 0.772309 17.9742 0.772309C19.4419 0.772309 20.6353 1.98511 20.6353 3.47557C20.6353 4.30059 20.2615 5.03246 19.6854 5.52856C19.4593 5.72281 19.2074 5.88276 18.9238 5.99252V6.96269V7.73536C19.1807 7.7563 19.4334 7.79133 19.6854 7.82924C23.8619 8.46434 27.2928 11.4203 28.6646 15.3667C28.8917 16.4871 29.0221 17.6396 29.0434 18.8185C29.0694 20.2526 28.9318 21.6546 28.6532 23.0118C28.6301 23.0757 28.6081 23.14 28.5839 23.2036C26.974 27.5551 22.8476 30.6645 18.008 30.6645C13.2621 30.6645 9.20254 27.6731 7.52903 23.4538C7.15196 21.9554 6.94797 20.3956 6.94797 18.7918C6.94797 17.8454 7.01905 16.915 7.15374 16.0029C7.20243 15.8267 7.25396 15.652 7.31224 15.4801C8.64174 11.5171 12.0435 8.53186 16.2022 7.84873Z" fill="url(#paint1_linear_1_50527)"/>
<path d="M23.1607 24.7002L23.0619 24.7475C23.053 24.7511 22.925 24.8421 22.6709 24.9916C22.4129 25.148 22.0316 25.3527 21.5611 25.5816C21.0877 25.8018 20.5244 26.0463 19.9035 26.2412C19.5929 26.3463 19.2692 26.4395 18.9344 26.5095C18.6025 26.6023 18.2595 26.6341 17.9137 26.6897C17.5697 26.7319 17.2225 26.7348 16.8795 26.7471C16.5444 26.7095 16.1986 26.7236 15.8816 26.6471C15.5671 26.5658 15.2398 26.5413 14.9672 26.4088C14.6953 26.2846 14.4007 26.225 14.185 26.0658C13.9529 25.9271 13.744 25.7997 13.557 25.6874C13.3872 25.5498 13.2461 25.4195 13.1256 25.3158C12.8871 25.1057 12.7485 24.9851 12.7485 24.9851C12.7485 24.9851 12.8676 25.1227 13.0798 25.3631C13.1874 25.4819 13.3118 25.6347 13.4675 25.7971C13.6434 25.9383 13.8438 26.0979 14.061 26.2719C14.2675 26.4669 14.5567 26.5687 14.829 26.7381C15.1062 26.9168 15.4385 26.9904 15.7668 27.1219C16.0995 27.2482 16.4641 27.2854 16.8266 27.3728C17.1934 27.4104 17.5718 27.4569 17.9475 27.4616C18.3221 27.4526 18.7062 27.466 19.0705 27.4147C19.4422 27.3872 19.8037 27.3345 20.152 27.2667C20.8474 27.1457 21.4839 26.9659 22.0234 26.7958C22.5629 26.6189 23.0054 26.4514 23.3124 26.316C23.4709 26.2463 23.5964 26.1911 23.6816 26.1539C23.7602 26.1156 23.8028 26.095 23.8028 26.095L23.8071 26.0939C24.1863 25.9127 24.3469 25.4541 24.17 25.0692C23.9916 24.684 23.5388 24.5197 23.1607 24.7002Z" fill="white"/>
<path d="M17.9105 24.6264C23.1948 24.6264 27.4775 22.0047 27.4775 18.7696C27.4775 15.5352 23.1948 12.9136 17.9105 12.9136C12.6298 12.9136 8.34814 15.5352 8.34814 18.7696C8.34779 22.0047 12.6298 24.6264 17.9105 24.6264ZM21.8852 16.4635C23.1379 16.4635 24.155 17.4958 24.155 18.7696C24.155 20.0442 23.1383 21.0761 21.8852 21.0761C20.6317 21.0761 19.6153 20.0442 19.6153 18.7696C19.6153 17.4958 20.6314 16.4635 21.8852 16.4635ZM14.1033 16.548C15.3582 16.548 16.3731 17.5803 16.3731 18.8541C16.3731 20.1279 15.3582 21.1606 14.1033 21.1606C12.8484 21.1606 11.8324 20.1279 11.8324 18.8541C11.8324 17.5803 12.8488 16.548 14.1033 16.548Z" fill="white"/>
<path d="M14.8278 20.0164C15.4604 19.6084 15.6463 18.7581 15.2461 18.1172C14.846 17.476 14.0094 17.2864 13.3768 17.6933C12.746 18.1006 12.5587 18.9506 12.9596 19.5932C13.3615 20.2334 14.1977 20.4237 14.8278 20.0164ZM13.2951 18.3071C13.5399 18.1508 13.8591 18.2237 14.0144 18.4696C14.1661 18.7151 14.0957 19.0419 13.853 19.1982C13.611 19.3546 13.2894 19.2809 13.1348 19.0361C12.982 18.7895 13.0538 18.4628 13.2951 18.3071Z" fill="url(#paint2_linear_1_50527)"/>
<path d="M21.0481 19.85C21.6345 20.3201 22.4863 20.2183 22.948 19.6215C23.4107 19.0254 23.3112 18.1606 22.722 17.6898C22.1356 17.2197 21.2848 17.3219 20.822 17.9183C20.3586 18.5148 20.4585 19.3803 21.0481 19.85ZM22.008 18.3617C22.1864 18.1328 22.5133 18.0935 22.7372 18.274C22.9629 18.4538 23.0013 18.7863 22.8247 19.0163C22.6466 19.2445 22.3189 19.2832 22.095 19.103C21.869 18.9232 21.8303 18.591 22.008 18.3617Z" fill="url(#paint3_linear_1_50527)"/>
<path d="M19.7713 3.42396C19.7713 2.42202 18.9727 1.61035 17.9858 1.61035C17.0004 1.61035 16.2021 2.42202 16.2021 3.42396C16.2021 4.42482 17.0004 5.23684 17.9858 5.23684C18.9724 5.23684 19.7713 4.42482 19.7713 3.42396Z" fill="white"/>
<defs>
<linearGradient id="paint0_linear_1_50527" x1="0" y1="39.5253" x2="36" y2="39.5253" gradientUnits="userSpaceOnUse">
<stop stop-color="#AB33F5"/>
<stop offset="1" stop-color="#FF6914"/>
</linearGradient>
<linearGradient id="paint1_linear_1_50527" x1="3.0835" y1="15.7179" x2="32.9158" y2="15.7179" gradientUnits="userSpaceOnUse">
<stop stop-color="#AB33F5"/>
<stop offset="1" stop-color="#FF6914"/>
</linearGradient>
<linearGradient id="paint2_linear_1_50527" x1="12.7485" y1="18.8549" x2="15.457" y2="18.8549" gradientUnits="userSpaceOnUse">
<stop stop-color="#AB33F5"/>
<stop offset="1" stop-color="#FF6914"/>
</linearGradient>
<linearGradient id="paint3_linear_1_50527" x1="20.5308" y1="18.77" x2="23.2389" y2="18.77" gradientUnits="userSpaceOnUse">
<stop stop-color="#AB33F5"/>
<stop offset="1" stop-color="#FF6914"/>
</linearGradient>
</defs>
</svg>
